{
	"patcher" : 	{
		"fileversion" : 1,
		"appversion" : 		{
			"major" : 8,
			"minor" : 0,
			"revision" : 5,
			"architecture" : "x64",
			"modernui" : 1
		}
,
		"classnamespace" : "box",
		"rect" : [ 62.0, 109.0, 1102.0, 877.0 ],
		"bglocked" : 0,
		"openinpresentation" : 0,
		"default_fontsize" : 12.0,
		"default_fontface" : 0,
		"default_fontname" : "Arial",
		"gridonopen" : 1,
		"gridsize" : [ 15.0, 15.0 ],
		"gridsnaponopen" : 1,
		"objectsnaponopen" : 1,
		"statusbarvisible" : 2,
		"toolbarvisible" : 1,
		"lefttoolbarpinned" : 0,
		"toptoolbarpinned" : 0,
		"righttoolbarpinned" : 0,
		"bottomtoolbarpinned" : 0,
		"toolbars_unpinned_last_save" : 0,
		"tallnewobj" : 0,
		"boxanimatetime" : 200,
		"enablehscroll" : 1,
		"enablevscroll" : 1,
		"devicewidth" : 0.0,
		"description" : "",
		"digest" : "",
		"tags" : "",
		"style" : "",
		"subpatcher_template" : "",
		"boxes" : [ 			{
				"box" : 				{
					"id" : "obj-54",
					"maxclass" : "button",
					"numinlets" : 1,
					"numoutlets" : 1,
					"outlettype" : [ "bang" ],
					"parameter_enable" : 0,
					"patching_rect" : [ 539.669899106025696, 37.333318948745728, 24.0, 24.0 ]
				}

			}
, 			{
				"box" : 				{
					"id" : "obj-55",
					"maxclass" : "newobj",
					"numinlets" : 2,
					"numoutlets" : 3,
					"outlettype" : [ "bang", "bang", "int" ],
					"patching_rect" : [ 539.669899106025696, 73.333318948745728, 44.0, 22.0 ],
					"text" : "uzi 4 0"
				}

			}
, 			{
				"box" : 				{
					"id" : "obj-53",
					"maxclass" : "message",
					"numinlets" : 2,
					"numoutlets" : 1,
					"outlettype" : [ "" ],
					"patching_rect" : [ 564.669899106025696, 103.333318948745728, 158.0, 22.0 ],
					"text" : "setStaffSpacingBelow $1 24"
				}

			}
, 			{
				"box" : 				{
					"id" : "obj-52",
					"maxclass" : "message",
					"numinlets" : 2,
					"numoutlets" : 1,
					"outlettype" : [ "" ],
					"patching_rect" : [ 262.0, 325.213591873645782, 129.0, 22.0 ],
					"text" : "setScoreTopMargin 40"
				}

			}
, 			{
				"box" : 				{
					"id" : "obj-51",
					"maxclass" : "message",
					"numinlets" : 2,
					"numoutlets" : 1,
					"outlettype" : [ "" ],
					"patching_rect" : [ 262.0, 299.0, 152.0, 22.0 ],
					"text" : "showSectionBrackets false"
				}

			}
, 			{
				"box" : 				{
					"id" : "obj-50",
					"maxclass" : "message",
					"numinlets" : 2,
					"numoutlets" : 1,
					"outlettype" : [ "" ],
					"patching_rect" : [ 262.0, 251.0, 149.0, 22.0 ],
					"text" : "setMeasureWidth $1 1340"
				}

			}
, 			{
				"box" : 				{
					"id" : "obj-49",
					"maxclass" : "newobj",
					"numinlets" : 1,
					"numoutlets" : 1,
					"outlettype" : [ "" ],
					"patching_rect" : [ 452.139145612716675, 281.999985456466675, 54.0, 22.0 ],
					"text" : "deferlow"
				}

			}
, 			{
				"box" : 				{
					"id" : "obj-3",
					"maxclass" : "button",
					"numinlets" : 1,
					"numoutlets" : 1,
					"outlettype" : [ "bang" ],
					"parameter_enable" : 0,
					"patching_rect" : [ 324.271840214729309, 41.333318948745728, 20.0, 20.0 ]
				}

			}
, 			{
				"box" : 				{
					"fontname" : "Arial",
					"fontsize" : 10.0,
					"id" : "obj-48",
					"maxclass" : "message",
					"numinlets" : 2,
					"numoutlets" : 1,
					"outlettype" : [ "" ],
					"patching_rect" : [ 324.271840214729309, 112.915843486785889, 72.0, 20.0 ],
					"text" : "saveScore $1"
				}

			}
, 			{
				"box" : 				{
					"fontname" : "Arial",
					"fontsize" : 10.0,
					"id" : "obj-5",
					"maxclass" : "newobj",
					"numinlets" : 1,
					"numoutlets" : 3,
					"outlettype" : [ "", "", "bang" ],
					"patching_rect" : [ 324.271840214729309, 78.333318948745728, 59.0, 20.0 ],
					"text" : "savedialog"
				}

			}
, 			{
				"box" : 				{
					"id" : "obj-47",
					"maxclass" : "message",
					"numinlets" : 2,
					"numoutlets" : 1,
					"outlettype" : [ "" ],
					"patching_rect" : [ 133.0, 30.449838519096375, 783.0, 22.0 ],
					"text" : "loadScore \"Macintosh HD:/Users/hajdu/Documents/tunnel_pieces/Notes from Underground 2-sans guitar.XML\", handleMusicCurveRendering true"
				}

			}
, 			{
				"box" : 				{
					"id" : "obj-46",
					"maxclass" : "message",
					"numinlets" : 2,
					"numoutlets" : 1,
					"outlettype" : [ "" ],
					"patching_rect" : [ 262.0, 164.333318948745728, 149.0, 22.0 ],
					"text" : "setMeasureWidth $1 1330"
				}

			}
, 			{
				"box" : 				{
					"id" : "obj-45",
					"maxclass" : "button",
					"numinlets" : 1,
					"numoutlets" : 1,
					"outlettype" : [ "bang" ],
					"parameter_enable" : 0,
					"patching_rect" : [ 230.0, 93.0, 24.0, 24.0 ]
				}

			}
, 			{
				"box" : 				{
					"id" : "obj-43",
					"maxclass" : "newobj",
					"numinlets" : 2,
					"numoutlets" : 3,
					"outlettype" : [ "bang", "bang", "int" ],
					"patching_rect" : [ 230.0, 129.0, 51.0, 22.0 ],
					"text" : "uzi 16 0"
				}

			}
, 			{
				"box" : 				{
					"id" : "obj-42",
					"maxclass" : "message",
					"numinlets" : 2,
					"numoutlets" : 1,
					"outlettype" : [ "" ],
					"patching_rect" : [ 90.815534353256226, 110.915843486785889, 126.0, 22.0 ],
					"text" : "setScoreSize 980 600"
				}

			}
, 			{
				"box" : 				{
					"fontname" : "Arial",
					"fontsize" : 12.0,
					"id" : "obj-40",
					"maxclass" : "newobj",
					"numinlets" : 1,
					"numoutlets" : 1,
					"outlettype" : [ "" ],
					"patching_rect" : [ 661.833319544792175, 173.333319664001465, 91.0, 22.0 ],
					"text" : "prepend render"
				}

			}
, 			{
				"box" : 				{
					"fontname" : "Arial",
					"fontsize" : 12.0,
					"id" : "obj-37",
					"maxclass" : "newobj",
					"numinlets" : 1,
					"numoutlets" : 1,
					"outlettype" : [ "bang" ],
					"patching_rect" : [ 133.0, 6.449838519096375, 58.0, 22.0 ],
					"text" : "loadbang"
				}

			}
, 			{
				"box" : 				{
					"id" : "obj-32",
					"maxclass" : "newobj",
					"numinlets" : 1,
					"numoutlets" : 2,
					"outlettype" : [ "int", "int" ],
					"patching_rect" : [ 844.737888872623444, 38.783172845840454, 32.0, 22.0 ],
					"text" : "t 0 0"
				}

			}
, 			{
				"box" : 				{
					"id" : "obj-31",
					"maxclass" : "message",
					"numinlets" : 2,
					"numoutlets" : 1,
					"outlettype" : [ "" ],
					"patching_rect" : [ 844.737888872623444, 5.449838519096375, 31.0, 22.0 ],
					"text" : "stop"
				}

			}
, 			{
				"box" : 				{
					"id" : "obj-29",
					"maxclass" : "button",
					"numinlets" : 1,
					"numoutlets" : 1,
					"outlettype" : [ "bang" ],
					"parameter_enable" : 0,
					"patching_rect" : [ 812.571183502674103, 5.449838519096375, 24.0, 24.0 ]
				}

			}
, 			{
				"box" : 				{
					"id" : "obj-27",
					"maxclass" : "newobj",
					"numinlets" : 2,
					"numoutlets" : 1,
					"outlettype" : [ "bang" ],
					"patching_rect" : [ 812.571183502674103, 70.783173799514771, 83.0, 22.0 ],
					"text" : "qmetro 60000"
				}

			}
, 			{
				"box" : 				{
					"id" : "obj-24",
					"maxclass" : "newobj",
					"numinlets" : 5,
					"numoutlets" : 4,
					"outlettype" : [ "int", "", "", "int" ],
					"patching_rect" : [ 812.571183502674103, 102.783158183097839, 85.0, 22.0 ],
					"text" : "counter 0 0 15"
				}

			}
, 			{
				"box" : 				{
					"id" : "obj-21",
					"maxclass" : "message",
					"numinlets" : 2,
					"numoutlets" : 1,
					"outlettype" : [ "" ],
					"patching_rect" : [ 1017.904522955417633, 126.666670441627502, 45.0, 22.0 ],
					"text" : "Collins"
				}

			}
, 			{
				"box" : 				{
					"id" : "obj-20",
					"maxclass" : "message",
					"numinlets" : 2,
					"numoutlets" : 1,
					"outlettype" : [ "" ],
					"patching_rect" : [ 959.237854540348053, 126.666670441627502, 45.0, 22.0 ],
					"text" : "Curran"
				}

			}
, 			{
				"box" : 				{
					"fontname" : "Arial",
					"fontsize" : 12.0,
					"id" : "obj-15",
					"maxclass" : "newobj",
					"numinlets" : 1,
					"numoutlets" : 1,
					"outlettype" : [ "" ],
					"patching_rect" : [ 959.237854540348053, 173.333319664001465, 109.0, 22.0 ],
					"text" : "prepend composer"
				}

			}
, 			{
				"box" : 				{
					"id" : "obj-14",
					"maxclass" : "newobj",
					"numinlets" : 0,
					"numoutlets" : 1,
					"outlettype" : [ "" ],
					"patching_rect" : [ 73.0, 78.333318948745728, 81.0, 22.0 ],
					"text" : "r scorecontrol"
				}

			}
, 			{
				"box" : 				{
					"fontname" : "Arial",
					"fontsize" : 12.0,
					"id" : "obj-71",
					"maxclass" : "newobj",
					"numinlets" : 0,
					"numoutlets" : 1,
					"outlettype" : [ "" ],
					"patching_rect" : [ 420.333319544792175, 73.333318948745728, 81.0, 22.0 ],
					"text" : "r endnotation"
				}

			}
, 			{
				"box" : 				{
					"id" : "obj-18",
					"maxclass" : "newobj",
					"numinlets" : 1,
					"numoutlets" : 2,
					"outlettype" : [ "bang", "" ],
					"patching_rect" : [ 812.571183502674103, 214.449824571609497, 29.5, 22.0 ],
					"text" : "t b l"
				}

			}
, 			{
				"box" : 				{
					"fontname" : "Arial",
					"fontsize" : 12.0,
					"id" : "obj-17",
					"maxclass" : "newobj",
					"numinlets" : 1,
					"numoutlets" : 1,
					"outlettype" : [ "" ],
					"patching_rect" : [ 812.571183502674103, 173.333319664001465, 140.0, 22.0 ],
					"text" : "prepend currentmeasure"
				}

			}
, 			{
				"box" : 				{
					"id" : "obj-16",
					"maxclass" : "number",
					"numinlets" : 1,
					"numoutlets" : 2,
					"outlettype" : [ "", "bang" ],
					"parameter_enable" : 0,
					"patching_rect" : [ 812.571183502674103, 136.449824571609497, 50.0, 22.0 ]
				}

			}
, 			{
				"box" : 				{
					"id" : "obj-79",
					"maxclass" : "newobj",
					"numinlets" : 1,
					"numoutlets" : 3,
					"outlettype" : [ "int", "bang", "" ],
					"patching_rect" : [ 512.333319544792175, 223.499985456466675, 40.0, 22.0 ],
					"text" : "t 0 b l"
				}

			}
, 			{
				"box" : 				{
					"id" : "obj-77",
					"maxclass" : "newobj",
					"numinlets" : 2,
					"numoutlets" : 2,
					"outlettype" : [ "", "" ],
					"patching_rect" : [ 512.333319544792175, 173.333318948745728, 115.0, 22.0 ],
					"text" : "routepass enddump"
				}

			}
, 			{
				"box" : 				{
					"id" : "obj-75",
					"maxclass" : "newobj",
					"numinlets" : 2,
					"numoutlets" : 0,
					"patching_rect" : [ 523.012931048870087, 281.999985456466675, 321.0, 22.0 ],
					"text" : "maxscore.net.send @address 192.168.2.3 @port 8765"
				}

			}
, 			{
				"box" : 				{
					"id" : "obj-74",
					"maxclass" : "message",
					"numinlets" : 2,
					"numoutlets" : 1,
					"outlettype" : [ "" ],
					"patching_rect" : [ 420.333319544792175, 103.333318948745728, 70.0, 22.0 ],
					"text" : "dumpScore"
				}

			}
, 			{
				"box" : 				{
					"id" : "obj-72",
					"maxclass" : "newobj",
					"numinlets" : 1,
					"numoutlets" : 2,
					"outlettype" : [ "", "" ],
					"patching_rect" : [ 420.333319544792175, 136.333318948745728, 111.0, 22.0 ],
					"text" : "grab 2 scorecontrol"
				}

			}
, 			{
				"box" : 				{
					"fontname" : "Arial",
					"fontsize" : 10.0,
					"id" : "obj-10",
					"maxclass" : "newobj",
					"numinlets" : 1,
					"numoutlets" : 1,
					"outlettype" : [ "bang" ],
					"patching_rect" : [ 186.0, 245.0, 50.0, 20.0 ],
					"text" : "loadbang"
				}

			}
, 			{
				"box" : 				{
					"id" : "obj-4",
					"maxclass" : "message",
					"numinlets" : 2,
					"numoutlets" : 1,
					"outlettype" : [ "" ],
					"patching_rect" : [ 186.0, 275.0, 74.0, 22.0 ],
					"text" : "autoadjust 1"
				}

			}
, 			{
				"box" : 				{
					"id" : "obj-22",
					"maxclass" : "newobj",
					"numinlets" : 2,
					"numoutlets" : 5,
					"outlettype" : [ "", "", "", "", "" ],
					"patching_rect" : [ 73.0, 218.333319664001465, 303.0, 22.0 ],
					"text" : "mxj com.algomusic.max.MaxScore @useNativeZoom 1"
				}

			}
, 			{
				"box" : 				{
					"bgmode" : 0,
					"border" : 1,
					"clickthrough" : 0,
					"enablehscroll" : 0,
					"enablevscroll" : 0,
					"id" : "obj-23",
					"lockeddragscroll" : 1,
					"maxclass" : "bpatcher",
					"name" : "maxscore.bcanvas.maxpat",
					"numinlets" : 2,
					"numoutlets" : 3,
					"offset" : [ 0.0, 0.0 ],
					"outlettype" : [ "", "bang", "" ],
					"patching_rect" : [ 71.0, 364.0, 700.0, 450.0 ],
					"prototypename" : "bcanvas",
					"varname" : "bcanvas",
					"viewvisibility" : 1
				}

			}
 ],
		"lines" : [ 			{
				"patchline" : 				{
					"destination" : [ "obj-4", 0 ],
					"source" : [ "obj-10", 0 ]
				}

			}
, 			{
				"patchline" : 				{
					"destination" : [ "obj-22", 0 ],
					"source" : [ "obj-14", 0 ]
				}

			}
, 			{
				"patchline" : 				{
					"destination" : [ "obj-18", 0 ],
					"midpoints" : [ 968.737854540348053, 204.116511106491089, 822.071183502674103, 204.116511106491089 ],
					"source" : [ "obj-15", 0 ]
				}

			}
, 			{
				"patchline" : 				{
					"destination" : [ "obj-17", 0 ],
					"order" : 0,
					"source" : [ "obj-16", 0 ]
				}

			}
, 			{
				"patchline" : 				{
					"destination" : [ "obj-40", 0 ],
					"midpoints" : [ 822.071183502674103, 167.333319664001465, 671.333319544792175, 167.333319664001465 ],
					"order" : 1,
					"source" : [ "obj-16", 0 ]
				}

			}
, 			{
				"patchline" : 				{
					"destination" : [ "obj-18", 0 ],
					"source" : [ "obj-17", 0 ]
				}

			}
, 			{
				"patchline" : 				{
					"destination" : [ "obj-75", 1 ],
					"source" : [ "obj-18", 1 ]
				}

			}
, 			{
				"patchline" : 				{
					"destination" : [ "obj-75", 0 ],
					"midpoints" : [ 822.071183502674103, 267.999985456466675, 532.512931048870087, 267.999985456466675 ],
					"source" : [ "obj-18", 0 ]
				}

			}
, 			{
				"patchline" : 				{
					"destination" : [ "obj-15", 0 ],
					"source" : [ "obj-20", 0 ]
				}

			}
, 			{
				"patchline" : 				{
					"destination" : [ "obj-15", 0 ],
					"source" : [ "obj-21", 0 ]
				}

			}
, 			{
				"patchline" : 				{
					"destination" : [ "obj-23", 1 ],
					"midpoints" : [ 153.5, 354.333338141441345, 761.5, 354.333338141441345 ],
					"source" : [ "obj-22", 1 ]
				}

			}
, 			{
				"patchline" : 				{
					"destination" : [ "obj-23", 0 ],
					"source" : [ "obj-22", 0 ]
				}

			}
, 			{
				"patchline" : 				{
					"destination" : [ "obj-22", 0 ],
					"midpoints" : [ 80.5, 856.66667115688324, 47.5, 856.66667115688324, 47.5, 136.0, 82.5, 136.0 ],
					"source" : [ "obj-23", 0 ]
				}

			}
, 			{
				"patchline" : 				{
					"destination" : [ "obj-16", 0 ],
					"source" : [ "obj-24", 0 ]
				}

			}
, 			{
				"patchline" : 				{
					"destination" : [ "obj-24", 0 ],
					"source" : [ "obj-27", 0 ]
				}

			}
, 			{
				"patchline" : 				{
					"destination" : [ "obj-27", 0 ],
					"source" : [ "obj-29", 0 ]
				}

			}
, 			{
				"patchline" : 				{
					"destination" : [ "obj-5", 0 ],
					"source" : [ "obj-3", 0 ]
				}

			}
, 			{
				"patchline" : 				{
					"destination" : [ "obj-32", 0 ],
					"source" : [ "obj-31", 0 ]
				}

			}
, 			{
				"patchline" : 				{
					"destination" : [ "obj-24", 2 ],
					"source" : [ "obj-32", 1 ]
				}

			}
, 			{
				"patchline" : 				{
					"destination" : [ "obj-27", 0 ],
					"source" : [ "obj-32", 0 ]
				}

			}
, 			{
				"patchline" : 				{
					"destination" : [ "obj-47", 0 ],
					"source" : [ "obj-37", 0 ]
				}

			}
, 			{
				"patchline" : 				{
					"destination" : [ "obj-23", 0 ],
					"source" : [ "obj-4", 0 ]
				}

			}
, 			{
				"patchline" : 				{
					"destination" : [ "obj-22", 0 ],
					"midpoints" : [ 671.333319544792175, 204.0, 82.5, 204.0 ],
					"source" : [ "obj-40", 0 ]
				}

			}
, 			{
				"patchline" : 				{
					"destination" : [ "obj-22", 0 ],
					"source" : [ "obj-42", 0 ]
				}

			}
, 			{
				"patchline" : 				{
					"destination" : [ "obj-46", 0 ],
					"source" : [ "obj-43", 2 ]
				}

			}
, 			{
				"patchline" : 				{
					"destination" : [ "obj-43", 0 ],
					"source" : [ "obj-45", 0 ]
				}

			}
, 			{
				"patchline" : 				{
					"destination" : [ "obj-22", 0 ],
					"source" : [ "obj-46", 0 ]
				}

			}
, 			{
				"patchline" : 				{
					"destination" : [ "obj-22", 0 ],
					"source" : [ "obj-47", 0 ]
				}

			}
, 			{
				"patchline" : 				{
					"destination" : [ "obj-22", 0 ],
					"source" : [ "obj-48", 0 ]
				}

			}
, 			{
				"patchline" : 				{
					"destination" : [ "obj-16", 0 ],
					"midpoints" : [ 461.639145612716675, 336.893199265003204, 891.262123703956604, 336.893199265003204, 891.262123703956604, 130.09708559513092, 822.071183502674103, 130.09708559513092 ],
					"source" : [ "obj-49", 0 ]
				}

			}
, 			{
				"patchline" : 				{
					"destination" : [ "obj-48", 0 ],
					"source" : [ "obj-5", 0 ]
				}

			}
, 			{
				"patchline" : 				{
					"destination" : [ "obj-22", 0 ],
					"source" : [ "obj-51", 0 ]
				}

			}
, 			{
				"patchline" : 				{
					"destination" : [ "obj-22", 0 ],
					"source" : [ "obj-52", 0 ]
				}

			}
, 			{
				"patchline" : 				{
					"destination" : [ "obj-22", 0 ],
					"source" : [ "obj-53", 0 ]
				}

			}
, 			{
				"patchline" : 				{
					"destination" : [ "obj-55", 0 ],
					"source" : [ "obj-54", 0 ]
				}

			}
, 			{
				"patchline" : 				{
					"destination" : [ "obj-53", 0 ],
					"source" : [ "obj-55", 2 ]
				}

			}
, 			{
				"patchline" : 				{
					"destination" : [ "obj-74", 0 ],
					"source" : [ "obj-71", 0 ]
				}

			}
, 			{
				"patchline" : 				{
					"destination" : [ "obj-77", 0 ],
					"source" : [ "obj-72", 1 ]
				}

			}
, 			{
				"patchline" : 				{
					"destination" : [ "obj-72", 0 ],
					"source" : [ "obj-74", 0 ]
				}

			}
, 			{
				"patchline" : 				{
					"destination" : [ "obj-75", 1 ],
					"midpoints" : [ 617.833319544792175, 245.999985456466675, 834.512931048870087, 245.999985456466675 ],
					"source" : [ "obj-77", 1 ]
				}

			}
, 			{
				"patchline" : 				{
					"destination" : [ "obj-79", 0 ],
					"source" : [ "obj-77", 0 ]
				}

			}
, 			{
				"patchline" : 				{
					"destination" : [ "obj-49", 0 ],
					"midpoints" : [ 521.833319544792175, 255.339802324771881, 461.639145612716675, 255.339802324771881 ],
					"source" : [ "obj-79", 0 ]
				}

			}
, 			{
				"patchline" : 				{
					"destination" : [ "obj-75", 1 ],
					"midpoints" : [ 542.833319544792175, 260.249985456466675, 834.512931048870087, 260.249985456466675 ],
					"source" : [ "obj-79", 2 ]
				}

			}
, 			{
				"patchline" : 				{
					"destination" : [ "obj-75", 0 ],
					"source" : [ "obj-79", 1 ]
				}

			}
 ],
		"parameters" : 		{
			"obj-23::obj-18::obj-11.5::obj-81" : [ "toggle[4]", "toggle[3]", 0 ],
			"obj-23::obj-18::obj-11.10::obj-81" : [ "toggle[9]", "toggle[3]", 0 ],
			"obj-23::obj-18::obj-11.15::obj-81" : [ "toggle[14]", "toggle[3]", 0 ],
			"obj-23::obj-18::obj-11.9::obj-81" : [ "toggle[8]", "toggle[3]", 0 ],
			"obj-23::obj-18::obj-11.14::obj-81" : [ "toggle[13]", "toggle[3]", 0 ],
			"obj-23::obj-18::obj-11.18::obj-81" : [ "toggle[17]", "toggle[3]", 0 ],
			"obj-23::obj-18::obj-11.20::obj-81" : [ "toggle[19]", "toggle[3]", 0 ],
			"obj-23::obj-18::obj-11.8::obj-81" : [ "toggle[7]", "toggle[3]", 0 ],
			"obj-23::obj-18::obj-11.1::obj-81" : [ "toggle[21]", "toggle[3]", 0 ],
			"obj-23::obj-18::obj-11.13::obj-81" : [ "toggle[12]", "toggle[3]", 0 ],
			"obj-23::obj-18::obj-11.19::obj-81" : [ "toggle[18]", "toggle[3]", 0 ],
			"obj-23::obj-18::obj-11.7::obj-81" : [ "toggle[6]", "toggle[3]", 0 ],
			"obj-23::obj-18::obj-11.12::obj-81" : [ "toggle[11]", "toggle[3]", 0 ],
			"obj-23::obj-18::obj-11.17::obj-81" : [ "toggle[16]", "toggle[3]", 0 ],
			"obj-23::obj-18::obj-11.3::obj-81" : [ "toggle[2]", "toggle[3]", 0 ],
			"obj-23::obj-18::obj-11.6::obj-81" : [ "toggle[5]", "toggle[3]", 0 ],
			"obj-23::obj-18::obj-11.11::obj-81" : [ "toggle[10]", "toggle[3]", 0 ],
			"obj-23::obj-18::obj-11.4::obj-81" : [ "toggle[3]", "toggle[3]", 0 ],
			"obj-23::obj-18::obj-11.16::obj-81" : [ "toggle[15]", "toggle[3]", 0 ],
			"obj-23::obj-18::obj-11.2::obj-81" : [ "toggle[1]", "toggle[3]", 0 ],
			"parameterbanks" : 			{

			}

		}
,
		"dependency_cache" : [ 			{
				"name" : "maxscore.bcanvas.maxpat",
				"bootpath" : "/Users/Shared/Max 8/Packages/MaxScore/patchers/abstractions",
				"patcherrelativepath" : "../../../Shared/Max 8/Packages/MaxScore/patchers/abstractions",
				"type" : "JSON",
				"implicit" : 1
			}
, 			{
				"name" : "picster-select.js",
				"bootpath" : "/Users/Shared/Max 8/Packages/MaxScore/javascript",
				"patcherrelativepath" : "../../../Shared/Max 8/Packages/MaxScore/javascript",
				"type" : "TEXT",
				"implicit" : 1
			}
, 			{
				"name" : "maxscore.lcd.js",
				"bootpath" : "/Users/Shared/Max 8/Packages/MaxScore/jsui",
				"patcherrelativepath" : "../../../Shared/Max 8/Packages/MaxScore/jsui",
				"type" : "TEXT",
				"implicit" : 1
			}
, 			{
				"name" : "maxscore.render2canvas.maxpat",
				"bootpath" : "/Users/Shared/Max 8/Packages/MaxScore/patchers/extensions",
				"patcherrelativepath" : "../../../Shared/Max 8/Packages/MaxScore/patchers/extensions",
				"type" : "JSON",
				"implicit" : 1
			}
, 			{
				"name" : "decodeURI.js",
				"bootpath" : "/Users/Shared/Max 8/Packages/MaxScore/javascript",
				"patcherrelativepath" : "../../../Shared/Max 8/Packages/MaxScore/javascript",
				"type" : "TEXT",
				"implicit" : 1
			}
, 			{
				"name" : "MaxScoreKeyMap.txt",
				"bootpath" : "/Users/Shared/Max 8/Packages/MaxScore/patchers/maps",
				"patcherrelativepath" : "../../../Shared/Max 8/Packages/MaxScore/patchers/maps",
				"type" : "TEXT",
				"implicit" : 1
			}
, 			{
				"name" : "packback.maxpat",
				"bootpath" : "/Users/Shared/Max 7/Packages/Quintet.net/patchers/Library/Abstractions/utilities",
				"patcherrelativepath" : "../../../Shared/Max 7/Packages/Quintet.net/patchers/Library/Abstractions/utilities",
				"type" : "JSON",
				"implicit" : 1
			}
, 			{
				"name" : "text_measure.maxpat",
				"bootpath" : "/Users/Shared/Max 8/Packages/MaxScore/patchers/extensions",
				"patcherrelativepath" : "../../../Shared/Max 8/Packages/MaxScore/patchers/extensions",
				"type" : "JSON",
				"implicit" : 1
			}
, 			{
				"name" : "maxscore.sax.maxpat",
				"bootpath" : "/Users/Shared/Max 8/Packages/MaxScore/patchers/extensions",
				"patcherrelativepath" : "../../../Shared/Max 8/Packages/MaxScore/patchers/extensions",
				"type" : "JSON",
				"implicit" : 1
			}
, 			{
				"name" : "font-mapping.maxpat",
				"bootpath" : "/Users/Shared/Max 8/Packages/MaxScore/patchers/extensions",
				"patcherrelativepath" : "../../../Shared/Max 8/Packages/MaxScore/patchers/extensions",
				"type" : "JSON",
				"implicit" : 1
			}
, 			{
				"name" : "MaxScoreOpusMap.txt",
				"bootpath" : "/Users/Shared/Max 8/Packages/MaxScore/patchers/maps/Font Mappings",
				"patcherrelativepath" : "../../../Shared/Max 8/Packages/MaxScore/patchers/maps/Font Mappings",
				"type" : "TEXT",
				"implicit" : 1
			}
, 			{
				"name" : "MaxScoreMaestroMap.txt",
				"bootpath" : "/Users/Shared/Max 8/Packages/MaxScore/patchers/maps/Font Mappings",
				"patcherrelativepath" : "../../../Shared/Max 8/Packages/MaxScore/patchers/maps/Font Mappings",
				"type" : "TEXT",
				"implicit" : 1
			}
, 			{
				"name" : "MaxScoreJazzWindowsMap.txt",
				"bootpath" : "/Users/Shared/Max 8/Packages/MaxScore/patchers/maps/Font Mappings",
				"patcherrelativepath" : "../../../Shared/Max 8/Packages/MaxScore/patchers/maps/Font Mappings",
				"type" : "TEXT",
				"implicit" : 1
			}
, 			{
				"name" : "MaxScoreJazzMap.txt",
				"bootpath" : "/Users/Shared/Max 8/Packages/MaxScore/patchers/maps/Font Mappings",
				"patcherrelativepath" : "../../../Shared/Max 8/Packages/MaxScore/patchers/maps/Font Mappings",
				"type" : "TEXT",
				"implicit" : 1
			}
, 			{
				"name" : "MaxScoreAloisenNewMap.txt",
				"bootpath" : "/Users/Shared/Max 8/Packages/MaxScore/patchers/maps/Font Mappings",
				"patcherrelativepath" : "../../../Shared/Max 8/Packages/MaxScore/patchers/maps/Font Mappings",
				"type" : "TEXT",
				"implicit" : 1
			}
, 			{
				"name" : "MaxScoreFontExtrasMap.txt",
				"bootpath" : "/Users/Shared/Max 8/Packages/MaxScore/patchers/maps",
				"patcherrelativepath" : "../../../Shared/Max 8/Packages/MaxScore/patchers/maps",
				"type" : "TEXT",
				"implicit" : 1
			}
, 			{
				"name" : "MaxScoreBravuraMap.txt",
				"bootpath" : "/Users/Shared/Max 8/Packages/MaxScore/patchers/maps/Font Mappings",
				"patcherrelativepath" : "../../../Shared/Max 8/Packages/MaxScore/patchers/maps/Font Mappings",
				"type" : "TEXT",
				"implicit" : 1
			}
, 			{
				"name" : "platform.js",
				"bootpath" : "/Users/Shared/Max 8/Packages/DJster+/javascript",
				"patcherrelativepath" : "../../../Shared/Max 8/Packages/DJster+/javascript",
				"type" : "TEXT",
				"implicit" : 1
			}
, 			{
				"name" : "micromaps.maxpat",
				"bootpath" : "/Users/Shared/Max 8/Packages/MaxScore/patchers/extensions",
				"patcherrelativepath" : "../../../Shared/Max 8/Packages/MaxScore/patchers/extensions",
				"type" : "JSON",
				"implicit" : 1
			}
, 			{
				"name" : "mM-Wysch.maxpat",
				"bootpath" : "/Users/Shared/Max 8/Packages/MaxScore/patchers/maps/microMaps",
				"patcherrelativepath" : "../../../Shared/Max 8/Packages/MaxScore/patchers/maps/microMaps",
				"type" : "JSON",
				"implicit" : 1
			}
, 			{
				"name" : "mM-Stahnke.maxpat",
				"bootpath" : "/Users/Shared/Max 8/Packages/MaxScore/patchers/maps/microMaps",
				"patcherrelativepath" : "../../../Shared/Max 8/Packages/MaxScore/patchers/maps/microMaps",
				"type" : "JSON",
				"implicit" : 1
			}
, 			{
				"name" : "mM-SIMS.maxpat",
				"bootpath" : "/Users/Shared/Max 8/Packages/MaxScore/patchers/maps/microMaps",
				"patcherrelativepath" : "../../../Shared/Max 8/Packages/MaxScore/patchers/maps/microMaps",
				"type" : "JSON",
				"implicit" : 1
			}
, 			{
				"name" : "mM-sagittal.maxpat",
				"bootpath" : "/Users/Shared/Max 8/Packages/MaxScore/patchers/maps/microMaps",
				"patcherrelativepath" : "../../../Shared/Max 8/Packages/MaxScore/patchers/maps/microMaps",
				"type" : "JSON",
				"implicit" : 1
			}
, 			{
				"name" : "mM-nTET.maxpat",
				"bootpath" : "/Users/Shared/Max 8/Packages/MaxScore/patchers/maps/microMaps",
				"patcherrelativepath" : "../../../Shared/Max 8/Packages/MaxScore/patchers/maps/microMaps",
				"type" : "JSON",
				"implicit" : 1
			}
, 			{
				"name" : "nTET.maxpat",
				"bootpath" : "/Users/Shared/Max 8/Packages/MaxScore/patchers/maps/microMaps/resources",
				"patcherrelativepath" : "../../../Shared/Max 8/Packages/MaxScore/patchers/maps/microMaps/resources",
				"type" : "JSON",
				"implicit" : 1
			}
, 			{
				"name" : "filter-repeated-accidentals.maxpat",
				"bootpath" : "/Users/Shared/Max 8/Packages/MaxScore/patchers/extensions",
				"patcherrelativepath" : "../../../Shared/Max 8/Packages/MaxScore/patchers/extensions",
				"type" : "JSON",
				"implicit" : 1
			}
, 			{
				"name" : "48TETz.txt",
				"bootpath" : "/Users/Shared/Max 8/Packages/MaxScore/patchers/maps/microMaps/resources",
				"patcherrelativepath" : "../../../Shared/Max 8/Packages/MaxScore/patchers/maps/microMaps/resources",
				"type" : "TEXT",
				"implicit" : 1
			}
, 			{
				"name" : "72Stahnkez.txt",
				"bootpath" : "/Users/Shared/Max 8/Packages/MaxScore/patchers/maps/microMaps/resources",
				"patcherrelativepath" : "../../../Shared/Max 8/Packages/MaxScore/patchers/maps/microMaps/resources",
				"type" : "TEXT",
				"implicit" : 1
			}
, 			{
				"name" : "96TETz.txt",
				"bootpath" : "/Users/Shared/Max 8/Packages/MaxScore/patchers/maps/microMaps/resources",
				"patcherrelativepath" : "../../../Shared/Max 8/Packages/MaxScore/patchers/maps/microMaps/resources",
				"type" : "TEXT",
				"implicit" : 1
			}
, 			{
				"name" : "72SIMSz.txt",
				"bootpath" : "/Users/Shared/Max 8/Packages/MaxScore/patchers/maps/microMaps/resources",
				"patcherrelativepath" : "../../../Shared/Max 8/Packages/MaxScore/patchers/maps/microMaps/resources",
				"type" : "TEXT",
				"implicit" : 1
			}
, 			{
				"name" : "72Wyschz.txt",
				"bootpath" : "/Users/Shared/Max 8/Packages/MaxScore/patchers/maps/microMaps/resources",
				"patcherrelativepath" : "../../../Shared/Max 8/Packages/MaxScore/patchers/maps/microMaps/resources",
				"type" : "TEXT",
				"implicit" : 1
			}
, 			{
				"name" : "mM-none.maxpat",
				"bootpath" : "/Users/Shared/Max 8/Packages/MaxScore/patchers/maps/microMaps",
				"patcherrelativepath" : "../../../Shared/Max 8/Packages/MaxScore/patchers/maps/microMaps",
				"type" : "JSON",
				"implicit" : 1
			}
, 			{
				"name" : "mM-JI.maxpat",
				"bootpath" : "/Users/Shared/Max 8/Packages/MaxScore/patchers/maps/microMaps",
				"patcherrelativepath" : "../../../Shared/Max 8/Packages/MaxScore/patchers/maps/microMaps",
				"type" : "JSON",
				"implicit" : 1
			}
, 			{
				"name" : "ratio-finder.maxpat",
				"bootpath" : "/Users/Shared/Max 8/Packages/MaxScore/patchers/extensions",
				"patcherrelativepath" : "../../../Shared/Max 8/Packages/MaxScore/patchers/extensions",
				"type" : "JSON",
				"implicit" : 1
			}
, 			{
				"name" : "cent2ratio-8.txt",
				"bootpath" : "/Users/Shared/Max 8/Packages/MaxScore/patchers/maps/microMaps/resources",
				"patcherrelativepath" : "../../../Shared/Max 8/Packages/MaxScore/patchers/maps/microMaps/resources",
				"type" : "TEXT",
				"implicit" : 1
			}
, 			{
				"name" : "mM-eighth-tones.maxpat",
				"bootpath" : "/Users/Shared/Max 8/Packages/MaxScore/patchers/maps/microMaps",
				"patcherrelativepath" : "../../../Shared/Max 8/Packages/MaxScore/patchers/maps/microMaps",
				"type" : "JSON",
				"implicit" : 1
			}
, 			{
				"name" : "mM-BP.maxpat",
				"bootpath" : "/Users/Shared/Max 8/Packages/MaxScore/patchers/maps/microMaps",
				"patcherrelativepath" : "../../../Shared/Max 8/Packages/MaxScore/patchers/maps/microMaps",
				"type" : "JSON",
				"implicit" : 1
			}
, 			{
				"name" : "maxfolder.js",
				"bootpath" : "/Users/Shared/Max 7/Packages/Quintet.net/javascript",
				"patcherrelativepath" : "../../../Shared/Max 7/Packages/Quintet.net/javascript",
				"type" : "TEXT",
				"implicit" : 1
			}
, 			{
				"name" : "scriptMaps.js",
				"bootpath" : "/Users/Shared/Max 8/Packages/MaxScore/javascript",
				"patcherrelativepath" : "../../../Shared/Max 8/Packages/MaxScore/javascript",
				"type" : "TEXT",
				"implicit" : 1
			}
, 			{
				"name" : "utf-82unicode.maxpat",
				"bootpath" : "/Users/Shared/Max 8/Packages/MaxScore/patchers/extensions",
				"patcherrelativepath" : "../../../Shared/Max 8/Packages/MaxScore/patchers/extensions",
				"type" : "JSON",
				"implicit" : 1
			}
, 			{
				"name" : "unicode2utf-8.maxpat",
				"bootpath" : "/Users/Shared/Max 8/Packages/MaxScore/patchers/extensions",
				"patcherrelativepath" : "../../../Shared/Max 8/Packages/MaxScore/patchers/extensions",
				"type" : "JSON",
				"implicit" : 1
			}
, 			{
				"name" : "strlen.js",
				"bootpath" : "/Users/Shared/Max 7/Packages/Quintet.net/javascript",
				"patcherrelativepath" : "../../../Shared/Max 7/Packages/Quintet.net/javascript",
				"type" : "TEXT",
				"implicit" : 1
			}
, 			{
				"name" : "svg-pie.js",
				"bootpath" : "/Users/Shared/Max 8/Packages/MaxScore/patchers/Picster",
				"patcherrelativepath" : "../../../Shared/Max 8/Packages/MaxScore/patchers/Picster",
				"type" : "TEXT",
				"implicit" : 1
			}
, 			{
				"name" : "sadam.canvas.reformat.maxpat",
				"bootpath" : "/Users/Shared/Max 8/Packages/MaxScore/patchers/extensions",
				"patcherrelativepath" : "../../../Shared/Max 8/Packages/MaxScore/patchers/extensions",
				"type" : "JSON",
				"implicit" : 1
			}
, 			{
				"name" : "sadam.canvas2svg.maxpat",
				"bootpath" : "/Users/Shared/Max 8/Packages/MaxScore/patchers/extensions",
				"patcherrelativepath" : "../../../Shared/Max 8/Packages/MaxScore/patchers/extensions",
				"type" : "JSON",
				"implicit" : 1
			}
, 			{
				"name" : "first-int.maxpat",
				"bootpath" : "/Users/Shared/Max 8/Packages/MaxScore/patchers/extensions",
				"patcherrelativepath" : "../../../Shared/Max 8/Packages/MaxScore/patchers/extensions",
				"type" : "JSON",
				"implicit" : 1
			}
, 			{
				"name" : "sadam.canvas2mgraphics.maxpat",
				"bootpath" : "/Users/Shared/Max 8/Packages/MaxScore/patchers/extensions",
				"patcherrelativepath" : "../../../Shared/Max 8/Packages/MaxScore/patchers/extensions",
				"type" : "JSON",
				"implicit" : 1
			}
, 			{
				"name" : "my-LtoColl.maxpat",
				"bootpath" : "/Users/Shared/Max 8/Packages/MaxScore/patchers/extensions",
				"patcherrelativepath" : "../../../Shared/Max 8/Packages/MaxScore/patchers/extensions",
				"type" : "JSON",
				"implicit" : 1
			}
, 			{
				"name" : "my-ltocoll.maxpat",
				"bootpath" : "/Users/Shared/Max 8/Packages/MaxScore/patchers/extensions",
				"patcherrelativepath" : "../../../Shared/Max 8/Packages/MaxScore/patchers/extensions",
				"type" : "JSON",
				"implicit" : 1
			}
, 			{
				"name" : "divmod.maxpat",
				"bootpath" : "/Users/Shared/Max 8/Packages/MaxScore/patchers/extensions",
				"patcherrelativepath" : "../../../Shared/Max 8/Packages/MaxScore/patchers/extensions",
				"type" : "JSON",
				"implicit" : 1
			}
, 			{
				"name" : "maxscore.cursors.maxpat",
				"bootpath" : "/Users/Shared/Max 8/Packages/MaxScore/patchers/extensions",
				"patcherrelativepath" : "../../../Shared/Max 8/Packages/MaxScore/patchers/extensions",
				"type" : "JSON",
				"implicit" : 1
			}
, 			{
				"name" : "polycursors.maxpat",
				"bootpath" : "/Users/Shared/Max 8/Packages/MaxScore/patchers/extensions",
				"patcherrelativepath" : "../../../Shared/Max 8/Packages/MaxScore/patchers/extensions",
				"type" : "JSON",
				"implicit" : 1
			}
, 			{
				"name" : "gh.split@.maxpat",
				"bootpath" : "/Users/Shared/Max 8/Packages/MaxScore/patchers/abstractions",
				"patcherrelativepath" : "../../../Shared/Max 8/Packages/MaxScore/patchers/abstractions",
				"type" : "JSON",
				"implicit" : 1
			}
, 			{
				"name" : "selectInterval.maxpat",
				"bootpath" : "/Users/Shared/Max 8/Packages/MaxScore/patchers/extensions",
				"patcherrelativepath" : "../../../Shared/Max 8/Packages/MaxScore/patchers/extensions",
				"type" : "JSON",
				"implicit" : 1
			}
, 			{
				"name" : "boxSize.js",
				"bootpath" : "/Users/Shared/Max 8/Packages/MaxScore/javascript",
				"patcherrelativepath" : "../../../Shared/Max 8/Packages/MaxScore/javascript",
				"type" : "TEXT",
				"implicit" : 1
			}
, 			{
				"name" : "maxscore.proportionalNotation.js",
				"bootpath" : "/Users/Shared/Max 8/Packages/MaxScore/javascript",
				"patcherrelativepath" : "../../../Shared/Max 8/Packages/MaxScore/javascript",
				"type" : "TEXT",
				"implicit" : 1
			}
, 			{
				"name" : "maxscore.net.send.maxpat",
				"bootpath" : "/Users/Shared/Max 8/Packages/MaxScore/patchers/abstractions",
				"patcherrelativepath" : "../../../Shared/Max 8/Packages/MaxScore/patchers/abstractions",
				"type" : "JSON",
				"implicit" : 1
			}
, 			{
				"name" : "maxscore.encode.js",
				"bootpath" : "/Users/Shared/Max 8/Packages/MaxScore/javascript",
				"patcherrelativepath" : "../../../Shared/Max 8/Packages/MaxScore/javascript",
				"type" : "TEXT",
				"implicit" : 1
			}
, 			{
				"name" : "sadam.rapidXML.mxo",
				"type" : "iLaX"
			}
, 			{
				"name" : "sadam.split.mxo",
				"type" : "iLaX"
			}
, 			{
				"name" : "sadam.empty.mxo",
				"type" : "iLaX"
			}
, 			{
				"name" : "sadam.base64.mxo",
				"type" : "iLaX"
			}
, 			{
				"name" : "sadam.lzo.mxo",
				"type" : "iLaX"
			}
, 			{
				"name" : "list-interpolate.mxo",
				"type" : "iLaX"
			}
 ],
		"autosave" : 0
	}

}
